<?xml version="1.0" encoding="utf-8"?>
<!-- Svg Vector Icons : http://www.onlinewebfonts.com/icon -->
<!DOCTYPE svg PUBLIC "-//W3C//DTD SVG 1.1//EN" "http://www.w3.org/Graphics/SVG/1.1/DTD/svg11.dtd">
<svg version="1.1" xmlns="http://www.w3.org/2000/svg" xmlns:xlink="http://www.w3.org/1999/xlink" x="0px" y="0px" viewBox="0 0 256 256" enable-background="new 0 0 256 256" xml:space="preserve">
<metadata> Svg Vector Icons : http://www.onlinewebfonts.com/icon </metadata>
<g><g><g><path fill="#000000" d="M39.9,10.7c-2.6,1-3.3,1.5-4.3,3.7c-0.7,1.7-0.9,12.5-0.9,113.9c0,110.9,0,112.1,1.1,113.8c0.6,1,1.8,2.2,2.8,2.8c1.8,1.1,2.7,1.1,90.1,1l88.3-0.2l2.1-2.2l2.1-2.2v-95.8c0-92.1-0.1-95.9-1-97.4c-1.8-2.8-36.7-36.7-38.6-37.4C179,9.7,42.7,9.8,39.9,10.7z M174.4,39.9v13.9l1.5,1.5l1.5,1.5h14.2h14.2l-0.1,86.7l-0.2,86.8H128H50.5l-0.2-102.2L50.2,26h62.1h62.1L174.4,39.9L174.4,39.9z"/><path fill="#000000" d="M114.6,92.2c-5.9,1.7-9.9,5.5-11.5,11c-1.1,3.8-1.1,16.6,0.1,20.6c1.5,5.4,6,9.5,11.6,10.9c3.5,0.9,11.7,0.4,14.7-0.8c4.5-1.9,6.2-5.9,3.6-8.5c-1.5-1.6-2.6-1.7-6.1-0.3c-3.7,1.4-8.7,1.4-11.1,0c-2.9-1.8-3.8-4.6-3.8-11.7c0-5.1,0.2-6.5,1.1-8.4c2.1-4.4,7.3-5.6,13.3-3.1c1.8,0.7,3.7,1.3,4.3,1.3c1.8,0,3.7-2.3,3.7-4.5c0-2.3-1.7-4.2-5.2-5.7C126.1,91.6,118.2,91.2,114.6,92.2z"/><path fill="#000000" d="M143.3,92.4c-3.2,1.8-3.2,2,4.5,21.7c7.9,20.4,8.3,21.1,12.5,21.1c1.7,0,2.7-0.3,3.7-1.2c0.9-0.8,3.4-6.5,8.3-19.1c3.8-9.9,7-18.5,7-19.2c0-2-2.3-3.8-5.1-3.8c-1.4,0-2.7,0.3-3.2,0.8c-0.4,0.5-3,7.6-5.8,15.7l-5,14.9l-4.9-14.8c-3.9-11.9-5.2-15-6.3-15.9C147.3,91.3,145.4,91.3,143.3,92.4z"/><path fill="#000000" d="M73.5,158.6c-1.1,1.2-1.1,2.2-0.1,3.7l0.8,1.2h50c44.8,0,50.1-0.1,50.8-0.9c1-1,1.1-3.5,0.2-4.4c-0.5-0.5-12.5-0.6-50.8-0.6C76.6,157.6,74.3,157.7,73.5,158.6z"/><path fill="#000000" d="M73.6,184.8c-0.6,0.6-1.1,1.5-1.1,2.1c0,0.6,0.5,1.5,1.1,2.1c1.1,1.1,1.8,1.1,50.8,1.1c47.5,0,49.8-0.1,50.6-1c1.3-1.4,1.1-3.6-0.3-4.6c-1.1-0.7-6.8-0.9-50.6-0.9C75.4,183.7,74.7,183.7,73.6,184.8z"/></g></g></g>
</svg>